<svg width="302" height="109" viewBox="37 71 302 109" xmlns="http://www.w3.org/2000/svg" xmlns:xlink="http://www.w3.org/1999/xlink"><defs><rect id="a" x="5.501" y="34.954" width="81.513" height="53.929" rx="3.11"/><rect id="b" x=".015" y=".079" width="23.004" height="33.456" rx="2.074"/><mask id="c" maskContentUnits="userSpaceOnUse" maskUnits="objectBoundingBox" x="0" y="0" width="81.513" height="53.929" fill="#fff"><use xlink:href="#a"/></mask><mask id="d" maskContentUnits="userSpaceOnUse" maskUnits="objectBoundingBox" x="0" y="0" width="23.004" height="33.456" fill="#fff"><use xlink:href="#b"/></mask></defs><g fill="none" fill-rule="evenodd" transform="translate(38 72)"><path d="M151.008 76.885h-1.454v2.901h-2.906v1.451h2.906v2.903h1.454v-2.903h2.906v-1.451h-2.906v-2.901Zm15.52 1.451a1.917 1.917 0 1 0 0 3.831 1.916 1.916 0 1 0 0-3.831Zm12.487 14.723-4.008-18.833a5.81 5.81 0 0 0-5.687-4.597h-22.09a5.812 5.812 0 0 0-5.688 4.597l-4.008 18.833a5.089 5.089 0 0 0 3.925 6.036 6.55 6.55 0 0 0 6.333-2.148l4.748-5.551h11.47l4.749 5.55a6.548 6.548 0 0 0 6.332 2.147 5.087 5.087 0 0 0 3.924-6.034Zm-4.227 4.616a5.088 5.088 0 0 1-4.926-1.669l-4.748-5.55-.433-.511H151.87l-.435.509-4.748 5.55a5.082 5.082 0 0 1-4.925 1.671 3.644 3.644 0 0 1-2.807-4.314l4.009-18.833a4.38 4.38 0 0 1 4.265-3.448h22.091c2.046 0 3.84 1.45 4.264 3.448l4.008 18.833c.204.95.024 1.921-.507 2.737a3.622 3.622 0 0 1-2.297 1.577Z" fill="#fff"/><path d="M44.7 32.555V.106H179.74v33.303M89.614 84.639h47.407" stroke="#fff" stroke-width="1.555"/><g transform="translate(172.527 36.383)"><path d="M0 30.688V3.111A3.113 3.113 0 0 1 3.106 0H38.9a3.11 3.11 0 0 1 3.106 3.107v55.162a3.11 3.11 0 0 1-3.105 3.107H8.322" stroke="#fff" stroke-width="1.555"/><ellipse stroke="#fff" stroke-width="1.555" cx="21.503" cy="41.446" rx="12.002" ry="11.984"/><ellipse fill="#fff" cx="22.003" cy="15.48" rx="1.5" ry="1.498"/></g><path d="M0 95.556h92.794M103.036 95.556h26.186" stroke="#fff" stroke-width="1.555"/><use stroke="#fff" mask="url(#c)" stroke-width="3.11" xlink:href="#a"/><g transform="translate(218.019 64.766)"><use stroke="#fff" mask="url(#d)" stroke-width="3.11" xlink:href="#b"/><ellipse fill="#fff" cx="11.517" cy="27.543" rx="1" ry=".999"/></g><g transform="translate(243.636 50.59)"><ellipse fill="#fff" cx="46.232" cy="24.975" rx="1.908" ry="1.916"/><ellipse fill="#fff" cx="10.135" cy="24.975" rx="1.908" ry="1.916"/><path d="M28.37 0H15.02c-2.238.418-4.035.848-4.928 3.417C9.199 5.985 5.023 15.84 5.023 15.84S.451 19.61.451 22.033c0 1.242.118 20.172.118 21.93 0 1.759.452 2.992 1.75 3.329h10.417c.58 0 2.284 0 2.284-1.778V38.78h13.35" stroke="#fff" stroke-width="1.555"/><path d="M27.916 0h13.35c2.238.418 4.035.848 4.928 3.417.894 2.568 5.07 12.424 5.07 12.424s4.571 3.77 4.571 6.192c0 1.242-.118 20.172-.118 21.93 0 1.759-.451 2.992-1.75 3.329H43.55c-.58 0-2.284 0-2.284-1.778V38.78h-13.35M.615 38.862h55.241M5.594 15.557h45.19" stroke="#fff" stroke-width="1.555"/></g></g></svg>